<?xml version="1.0" standalone="no"?>
<!DOCTYPE svg PUBLIC "-//W3C//DTD SVG 20010904//EN"
 "http://www.w3.org/TR/2001/REC-SVG-20010904/DTD/svg10.dtd">
<svg version="1.0" xmlns="http://www.w3.org/2000/svg"
 width="141.000000pt" height="1350.000000pt" viewBox="0 0 141.000000 1350.000000"
 preserveAspectRatio="xMidYMid meet">
<metadata>
Created by potrace 1.10, written by Peter Selinger 2001-2011
</metadata>
<g transform="translate(0.000000,1350.000000) scale(0.100000,-0.100000)"
fill="#000000" stroke="none">
<path d="M979 13318 c-53 -75 -100 -143 -114 -166 -9 -15 -39 -64 -72 -117 -7
-11 -15 -27 -19 -35 -4 -8 -18 -32 -32 -54 -35 -56 -145 -280 -180 -366 -79
-194 -132 -352 -166 -495 -9 -38 -22 -87 -27 -108 -17 -63 -38 -203 -59 -382
-25 -216 -28 -643 -5 -857 36 -345 85 -624 180 -1033 8 -33 21 -94 30 -135 17
-76 30 -128 59 -231 9 -31 16 -64 16 -74 0 -10 7 -43 16 -74 29 -103 42 -155
59 -231 9 -41 22 -100 30 -130 49 -193 90 -410 120 -640 20 -145 17 -516 -4
-610 -57 -251 -110 -369 -252 -553 -37 -47 -141 -145 -206 -195 -76 -57 -79
-76 -20 -117 98 -69 253 -237 324 -350 23 -37 83 -165 83 -178 0 -7 4 -17 9
-23 10 -11 33 -87 57 -194 25 -111 31 -489 10 -630 -8 -58 -18 -121 -20 -140
-8 -63 -34 -214 -46 -265 -7 -27 -18 -78 -26 -113 -7 -34 -21 -92 -30 -130 -8
-37 -22 -96 -30 -132 -9 -36 -22 -92 -30 -125 -9 -33 -22 -87 -31 -120 -8 -33
-21 -87 -30 -120 -27 -108 -41 -169 -58 -245 -9 -41 -22 -100 -30 -130 -25
-103 -69 -309 -89 -415 -8 -44 -20 -107 -26 -140 -13 -73 -35 -225 -57 -400
-24 -198 -29 -721 -9 -900 20 -171 43 -322 61 -395 7 -30 21 -89 30 -130 18
-75 65 -234 90 -300 63 -165 123 -306 171 -402 69 -135 221 -389 306 -510 51
-73 64 -86 76 -76 17 15 13 168 -6 191 -18 21 -142 259 -142 271 0 3 -13 34
-28 68 -91 199 -164 466 -196 718 -30 232 -28 651 4 870 23 163 63 393 86 495
35 158 46 203 59 258 16 59 34 133 61 240 8 34 21 85 29 112 7 28 21 79 30
115 9 36 23 88 30 115 8 28 21 77 29 110 29 119 48 191 62 241 8 28 14 59 14
68 0 9 6 38 14 64 23 79 53 230 90 457 53 326 53 696 0 955 -21 101 -50 217
-65 260 -54 157 -102 266 -181 410 -72 132 -248 362 -379 496 -43 44 -79 87
-79 95 0 8 41 57 91 109 248 259 446 580 544 884 65 201 80 285 105 566 23
266 -31 743 -126 1120 -20 79 -63 254 -80 330 -24 102 -31 126 -68 265 -34
124 -59 219 -77 295 -4 19 -17 71 -29 115 -12 44 -25 98 -29 120 -4 22 -13 58
-19 80 -19 73 -43 194 -86 435 -37 203 -49 363 -49 645 0 209 4 310 17 400 51
365 160 686 342 1015 27 48 37 81 41 127 6 63 -1 113 -15 113 -5 0 -28 -28
-53 -62z"/>
</g>
</svg>
